<svg xmlns="http://www.w3.org/2000/svg" viewBox="755 105 355 140" fill="#ffffff">
  <path fill="#4699d0" d="M773.8,129.4h19v-8.5c0-5.8-3.2-8.9-9-8.9h-19.6c-1.7,0-2.6.9-2.6,2.6v12.1c0,1.7.9,2.7,2.6,2.7h9.6Z"></path>
  <path d="M786.8,138.7c1.9,0,3.7.6,5.4,1.9,1.7,1.2,2.7,2.8,3.2,4.6l9.4,32.3,9.4-32.3c.6-1.8,1.7-3.4,3.3-4.6,1.7-1.2,3.4-1.9,5.4-1.9h5.4c1.9,0,3.7.6,5.4,1.9,1.7,1.2,2.8,2.8,3.3,4.6l9.4,32.3,9.4-32.3c.5-1.8,1.5-3.4,3.2-4.6,1.7-1.2,3.4-1.9,5.4-1.9h7.2c1.9,0,3.4.6,4.3,1.9,1,1.2,1.1,2.8.5,4.6l-18.6,58.6c-.6,1.8-1.8,3.4-3.4,4.6s-3.4,1.9-5.4,1.9h-5.2c-1.9,0-3.7-.6-5.4-1.9s-2.8-2.8-3.3-4.6l-9.2-30.7-9.5,30.7c-.5,1.8-1.5,3.4-3.2,4.6-1.7,1.2-3.4,1.9-5.4,1.9h-5.2c-2,0-3.8-.6-5.4-1.9-1.6-1.2-2.7-2.8-3.4-4.6l-18.6-58.6c-.6-1.8-.5-3.4.4-4.6.9-1.2,2.4-1.9,4.4-1.9h7.2Z"></path>
  <path d="M881.7,154.5c-1.1-1.1-1.7-2.5-1.7-4.1v-6.3c0-1.7.6-3,1.7-4.1,1.1-1.1,2.5-1.7,4.2-1.7h4.4v-14.3c0-1.9.6-3.6,1.9-4.9,1.3-1.3,2.9-2,4.8-2h7.2c1.9,0,3.5.7,4.8,2s1.9,3,1.9,4.9v14.3h10.3c1.7,0,3.1.6,4.2,1.7,1.1,1.1,1.7,2.5,1.7,4.1v6.3c0,1.7-.6,3-1.7,4.1-1.1,1.1-2.5,1.7-4.2,1.7h-10.3v26.8c0,2.2.7,4,2.2,5.4,1.5,1.4,3.3,2.1,5.6,2.1h2.8c1.6,0,2.9.6,4,1.7,1.1,1.1,1.7,2.4,1.7,4v8c0,1.6-.6,2.9-1.7,4-1.1,1.1-2.4,1.7-4,1.7h-6.2c-7.1,0-13-2.2-17.8-6.5-4.8-4.4-7.2-9.8-7.2-16.3v-30.8h-4.4c-1.7,0-3.1-.6-4.2-1.7Z"></path>
  <path d="M937.3,111.7c2.3-2.3,5.3-3.5,8.9-3.5s6.5,1.2,8.9,3.5c2.3,2.3,3.5,5.3,3.5,8.9s-1.2,6.5-3.5,8.9c-2.3,2.3-5.3,3.5-8.9,3.5s-6.5-1.2-8.9-3.5c-2.3-2.3-3.5-5.3-3.5-8.9s1.2-6.5,3.5-8.9ZM935.9,145c0-1.9.6-3.5,1.9-4.8s2.9-1.9,4.8-1.9h7c2,0,3.7.6,5,1.9s1.9,2.9,1.9,4.8v58.1c0,1.9-.6,3.5-1.9,4.8-1.3,1.3-2.9,1.9-5,1.9h-7c-1.9,0-3.5-.6-4.8-1.9-1.3-1.3-1.9-2.9-1.9-4.8v-58.1Z"></path>
  <path d="M970,140.2c1.3-1.3,2.9-1.9,4.8-1.9h7c1.7,0,3.3.6,4.5,1.7,1.3,1.1,2.1,2.5,2.3,4.1,5.8-5,12.6-7.6,20.4-7.6s17.4,3.6,23.7,10.7c6.4,7.2,9.6,16.1,9.6,26.8s-3.2,19.6-9.6,26.8c-6.4,7.2-14.3,10.8-23.7,10.8s-14.6-2.5-20.4-7.6v30c0,1.9-.6,3.5-1.9,4.8s-2.9,1.9-5,1.9h-7c-1.9,0-3.5-.6-4.8-1.9-1.3-1.3-1.9-2.9-1.9-4.8v-89.1c0-1.9.6-3.5,1.9-4.8ZM993.6,161.8c-3.1,3.3-4.6,7.4-4.6,12.4s1.5,8.8,4.6,12.1c3.1,3.3,6.9,5,11.4,5s8.1-1.7,11.2-5c3.1-3.3,4.6-7.3,4.6-12.1s-1.5-9.1-4.6-12.4c-3.1-3.3-6.8-5-11.2-5s-8.3,1.7-11.4,5Z"></path>
  <path d="M1089,158.5c-1.7,0-3.4-.8-5.2-2.3-1.9-2.1-4.9-3.2-8.9-3.2s-8.1,1.6-8.1,4.7,1.9,3.4,5.6,4.8l12.8,4.1c7.2,2.3,12.5,5.2,15.6,8.7s4.7,7.9,4.7,13.4-2.7,13.2-8.1,17.1-12.5,5.8-21.4,5.8c-15,0-24.7-5-28.9-14.9-.7-1.7-.6-3.2.3-4.7s2.5-2.5,4.5-2.8l8.8-1.2h.3c1.7,0,3.2.9,4.7,2.6,2,2.8,5.6,4.1,10.7,4.1s5-.5,6.7-1.4c1.7-.9,2.6-2.2,2.6-3.9s-2.4-4.1-7.2-5.5l-13.1-3.9c-6.7-1.8-11.5-4.4-14.5-7.7-2.9-3.3-4.4-7.6-4.4-12.9,0-7.9,2.7-13.7,8-17.4,5.3-3.7,12.3-5.6,21.1-5.6,13.6,0,22.5,4.3,26.7,12.9.7,1.7.6,3.3-.3,4.8s-2.4,2.5-4.4,2.9l-8.8,1.4Z"></path>
</svg>