<svg xmlns="http://www.w3.org/2000/svg" width="316.712" height="88.135" viewBox="0 0 316.712 88.135">
  <g id="fajne_skaldy_logo_black" data-name="fajne skaldy logo_black" transform="translate(-360.4 -291.955)">
    <g id="XMLID_414_" transform="translate(477.304 292.216)">
      <path id="XMLID_444_" d="M469.722,283.7v26.938c0,12.292-6.015,18.046-17.261,18.046-9.938,0-17-6.277-17.261-14.646l12.292-2.354a4.428,4.428,0,0,0,4.707,4.184c3.4,0,4.446-2.615,4.446-5.231V283.7Z" transform="translate(-356.48 -283.7)" fill="#fff"/>
      <path id="XMLID_442_" d="M490.591,283.7v43.937H479.084L464.176,304.1v23.538H451.1V283.7h11.507l14.907,23.538V283.7Z" transform="translate(-330.796 -283.7)" fill="#fff"/>
      <g id="XMLID_430_" transform="translate(0 51.26)">
        <path id="XMLID_440_" d="M433.868,328.407c0,6.277-5.23,11.507-13.861,11.507-6.538,0-13.6-2.354-14.907-9.415l8.892-2.877c.261,1.831,2.354,3.661,5.492,3.661,2.615,0,3.923-1.308,3.923-2.615,0-2.092-2.615-2.354-6.277-3.138-6.8-1.569-10.723-4.446-10.723-10.984,0-6.8,5.754-11.246,13.6-11.246,6.277,0,11.769,3.138,13.077,9.415l-8.892,2.092a3.872,3.872,0,0,0-3.923-2.615c-2.092,0-3.661.785-3.661,2.615,0,2.092,3.138,2.354,5.754,3.138C430.991,319.776,433.868,322.653,433.868,328.407Z" transform="translate(-405.1 -303.3)" fill="#fff"/>
        <path id="XMLID_438_" d="M437.376,338.968l-9.415-15.692v15.692H417.5V303.4h10.461v15.692l9.154-15.692h11.507L437.9,320.661l11.507,18.046h-12.03Z" transform="translate(-385.07 -303.138)" fill="#fff"/>
        <path id="XMLID_436_" d="M454.6,329.553v9.415H430.8V303.4h10.461v25.891H454.6Z" transform="translate(-363.587 -303.138)" fill="#fff"/>
        <path id="XMLID_433_" d="M488.391,321.184c0,10.984-7.323,17.784-19.092,17.784H455.7V303.4h13.6C481.068,303.4,488.391,310.2,488.391,321.184Zm-10.461,0c0-4.969-3.138-8.108-8.631-8.108h-3.138v16.476H469.3C474.792,329.553,477.93,326.415,477.93,321.184Z" transform="translate(-323.366 -303.138)" fill="#fff"/>
        <path id="XMLID_431_" d="M490.976,325.63v13.338H480.515V325.63L467.7,303.4h11.507l6.538,13.861,6.538-13.861h11.507Z" transform="translate(-303.982 -303.138)" fill="#fff"/>
      </g>
      <g id="XMLID_427_" transform="translate(3.4 0)">
        <path id="XMLID_429_" d="M428.368,290.9H406.4v25.107h13.077V301.623h14.646V290.9Z" transform="translate(-406.4 -272.07)" fill="#fff"/>
        <path id="XMLID_428_" d="M406.4,283.7v11.246h29.553V283.7Z" transform="translate(-406.4 -283.7)" fill="#fff"/>
      </g>
      <g id="XMLID_424_" transform="translate(166.594 33.737)">
        <rect id="XMLID_425_" width="29.814" height="10.461" fill="#fff"/>
      </g>
      <g id="XMLID_421_" transform="translate(166.594 0)">
        <rect id="XMLID_423_" width="29.291" height="10.2" fill="#fff"/>
        <rect id="XMLID_422_" width="22.753" height="9.677" transform="translate(0 17.261)" fill="#fff"/>
      </g>
      <g id="XMLID_418_" transform="translate(32.43 0)">
        <path id="XMLID_420_" d="M426.2,297.8Z" transform="translate(-403.447 -260.924)" fill="#fff"/>
        <path id="XMLID_419_" d="M448.36,283.7H432.146L417.5,327.637h13.861l5.231-18.83h0l3.4-12.815,3.923,13.861c0,.262.262.262.262.523l4.707,16.738h13.861Z" transform="translate(-417.5 -283.7)" fill="#fff"/>
      </g>
      <g id="XMLID_415_" transform="translate(92.581 51.521)">
        <path id="XMLID_417_" d="M447.661,314.961V314.7l-.262.262Z" transform="translate(-429.354 -285.147)" fill="#fff"/>
        <path id="XMLID_416_" d="M465.084,303.4H452.269L440.5,338.706h11.246L455.93,323.8h0l2.877-10.2,3.138,11.246c0,.262.262.262.262.523l3.923,13.6h11.246Z" transform="translate(-440.5 -303.4)" fill="#fff"/>
      </g>
    </g>
    <g id="XMLID_408_" transform="translate(360.4 291.955)">
      <g id="Group_4" data-name="Group 4" transform="translate(0 0)">
        <path id="XMLID_410_" d="M420.321,294.846v11.507h19.615c-12.553,21.707-24.845,42.891-37.4,64.6-12.553-21.707-24.845-42.891-37.137-64.336h31.122V317.86H385.276c5.754,10.2,11.507,19.876,17.261,30.076,5.754-9.938,11.246-19.615,17.261-29.814H408.552V283.6h44.46c-2.092,3.661-3.923,7.061-6.015,10.461a4.417,4.417,0,0,1-2.615.785H420.321Z" transform="translate(-352.324 -283.6)" fill="#fff"/>
        <path id="XMLID_409_" d="M360.4,283.6h44.722v11.246H369.553c-1.569,0-2.615-.262-3.4-1.831C364.061,289.877,362.231,287,360.4,283.6Z" transform="translate(-360.4 -283.6)" fill="#fff"/>
      </g>
    </g>
  </g>
</svg>
