<svg xmlns="http://www.w3.org/2000/svg" viewBox="0 0 100 100" role="img" aria-label="Wtips">
  <defs>
    <linearGradient id="mg" x1="0" y1="0" x2="1" y2="1">
      <stop offset="0%" stop-color="#65adde"/>
      <stop offset="100%" stop-color="#2a6e9e"/>
    </linearGradient>
    <radialGradient id="bg" cx="50%" cy="32%" r="80%">
      <stop offset="0%" stop-color="#1c2a47"/>
      <stop offset="100%" stop-color="#0a111e"/>
    </radialGradient>
  </defs>
  <rect width="100" height="100" rx="22" fill="url(#bg)"/>
  <g transform="translate(50,50) scale(0.62) translate(-75.5,-39.5) translate(-750,-135)">
    <path fill="url(#mg)" d="M786.8,138.7c1.9,0,3.7.6,5.4,1.9,1.7,1.2,2.7,2.8,3.2,4.6l9.4,32.3,9.4-32.3c.6-1.8,1.7-3.4,3.3-4.6,1.7-1.2,3.4-1.9,5.4-1.9h5.4c1.9,0,3.7.6,5.4,1.9,1.7,1.2,2.8,2.8,3.3,4.6l9.4,32.3,9.4-32.3c.5-1.8,1.5-3.4,3.2-4.6,1.7-1.2,3.4-1.9,5.4-1.9h7.2c1.9,0,3.4.6,4.3,1.9,1,1.2,1.1,2.8.5,4.6l-18.6,58.6c-.6,1.8-1.8,3.4-3.4,4.6s-3.4,1.9-5.4,1.9h-5.2c-1.9,0-3.7-.6-5.4-1.9s-2.8-2.8-3.3-4.6l-9.2-30.7-9.5,30.7c-.5,1.8-1.5,3.4-3.2,4.6-1.7,1.2-3.4,1.9-5.4,1.9h-5.2c-2,0-3.8-.6-5.4-1.9-1.6-1.2-2.7-2.8-3.4-4.6l-18.6-58.6c-.6-1.8-.5-3.4.4-4.6.9-1.2,2.4-1.9,4.4-1.9h7.2Z"/>
  </g>
</svg>
